<svg width="26" height="24" viewBox="0 0 26 24" fill="none" xmlns="http://www.w3.org/2000/svg">
<path fill-rule="evenodd" clip-rule="evenodd" d="M24.6621 0H1.07227C0.787883 0 0.515148 0.105357 0.314059 0.292893C0.112971 0.48043 0 0.734784 0 1L0 23C0 23.2652 0.112971 23.5196 0.314059 23.7071C0.515148 23.8946 0.787883 24 1.07227 24H13.6714V15H10.4546V11.25H13.6714V8.25C13.6714 5.15 15.7762 3.625 18.7411 3.625C20.1607 3.625 21.382 3.724 21.737 3.767V7.007L19.6814 7.008C18.0687 7.008 17.6924 7.723 17.6924 8.771V11.25H21.7134L20.9092 15H17.6924L17.7567 24H24.6621C24.9465 24 25.2192 23.8946 25.4203 23.7071C25.6214 23.5196 25.7344 23.2652 25.7344 23V1C25.7344 0.734784 25.6214 0.48043 25.4203 0.292893C25.2192 0.105357 24.9465 0 24.6621 0" fill="#C4C4C4"/>
</svg>
