<svg width="26" height="24" viewBox="0 0 26 24" fill="none" xmlns="http://www.w3.org/2000/svg">
<path d="M12.8672 9.1425C12.2612 9.14271 11.669 9.31048 11.1652 9.6246C10.6615 9.93871 10.269 10.3851 10.0372 10.9072C9.80551 11.4294 9.745 12.0039 9.86335 12.5581C9.9817 13.1124 10.2736 13.6214 10.7022 14.0209C11.1307 14.4205 11.6767 14.6925 12.271 14.8027C12.8653 14.9128 13.4813 14.8562 14.0411 14.6399C14.6009 14.4236 15.0794 14.0573 15.416 13.5874C15.7527 13.1175 15.9323 12.5651 15.9323 12C15.9317 11.2421 15.6086 10.5155 15.0338 9.97969C14.4591 9.4439 13.6798 9.14278 12.8672 9.1425ZM20.0309 6.94607C19.8749 6.57742 19.6394 6.24258 19.3389 5.96234C19.0384 5.6821 18.6793 5.46243 18.284 5.31696C17.0777 4.87286 14.2056 4.9725 12.8672 4.9725C11.5288 4.9725 8.6595 4.86911 7.44976 5.31696C7.05446 5.46243 6.69543 5.6821 6.39494 5.96234C6.09445 6.24258 5.8589 6.57742 5.70292 6.94607C5.22729 8.07107 5.33356 10.7523 5.33356 11.9995C5.33356 13.2466 5.22729 15.9246 5.70522 17.0534C5.8612 17.422 6.09674 17.7569 6.39723 18.0371C6.69773 18.3174 7.05676 18.537 7.45205 18.6825C8.65835 19.1266 11.5305 19.027 12.8695 19.027C14.2085 19.027 17.0766 19.1304 18.2863 18.6825C18.6816 18.537 19.0407 18.3174 19.3412 18.0371C19.6416 17.7569 19.8772 17.422 20.0332 17.0534C20.5128 15.9284 20.4025 13.2471 20.4025 12C20.4025 10.7529 20.5128 8.07536 20.0332 6.94661L20.0309 6.94607ZM12.8672 16.3929C11.9356 16.3929 11.0249 16.1352 10.2503 15.6525C9.47567 15.1698 8.87194 14.4838 8.51543 13.6811C8.15892 12.8784 8.06564 11.9951 8.24738 11.143C8.42913 10.2909 8.87775 9.50813 9.53649 8.89378C10.1952 8.27943 11.0345 7.86105 11.9483 7.69155C12.862 7.52205 13.809 7.60904 14.6697 7.94153C15.5304 8.27401 16.2661 8.83706 16.7837 9.55946C17.3012 10.2819 17.5775 11.1312 17.5775 12C17.5783 12.5771 17.4569 13.1486 17.2205 13.6819C16.984 14.2152 16.6371 14.6997 16.1996 15.1078C15.762 15.5158 15.2425 15.8394 14.6706 16.0599C14.0988 16.2804 13.486 16.3936 12.8672 16.3929ZM17.7717 8.44821C17.5542 8.44832 17.3416 8.38827 17.1607 8.27567C16.9798 8.16307 16.8388 8.00297 16.7555 7.81562C16.6722 7.62827 16.6503 7.42208 16.6927 7.22315C16.735 7.02421 16.8397 6.84146 16.9934 6.69801C17.1472 6.55456 17.3431 6.45685 17.5564 6.41724C17.7697 6.37763 17.9908 6.39791 18.1917 6.4755C18.3926 6.55309 18.5644 6.68451 18.6852 6.85314C18.806 7.02177 18.8705 7.22004 18.8705 7.42286C18.8711 7.55754 18.8432 7.69101 18.7884 7.81562C18.7336 7.94022 18.6529 8.0535 18.551 8.14896C18.4491 8.24442 18.328 8.32019 18.1947 8.37191C18.0614 8.42363 17.9184 8.45029 17.774 8.45036L17.7717 8.44821ZM22.9771 0H2.75725C2.02599 0 1.32467 0.270918 0.807581 0.753154C0.290496 1.23539 0 1.88944 0 2.57143L0 21.4286C0 22.1106 0.290496 22.7646 0.807581 23.2468C1.32467 23.7291 2.02599 24 2.75725 24H22.9771C23.7084 24 24.4097 23.7291 24.9268 23.2468C25.4439 22.7646 25.7344 22.1106 25.7344 21.4286V2.57143C25.7344 1.88944 25.4439 1.23539 24.9268 0.753154C24.4097 0.270918 23.7084 0 22.9771 0ZM21.9937 15.5357C21.9196 16.9088 21.5836 18.1254 20.5088 19.125C19.434 20.1246 18.1307 20.4445 16.6601 20.5098C15.1431 20.5896 10.5947 20.5896 9.07769 20.5098C7.60543 20.4407 6.3055 20.1268 5.22902 19.125C4.15254 18.1232 3.8142 16.9061 3.74412 15.5357C3.65853 14.1204 3.65853 9.87804 3.74412 8.46429C3.81822 7.09125 4.15024 5.87464 5.22902 4.875C6.30779 3.87536 7.61117 3.55929 9.07769 3.49393C10.5947 3.41411 15.1431 3.41411 16.6601 3.49393C18.1324 3.56304 19.4363 3.87696 20.5088 4.87875C21.5813 5.88054 21.9236 7.09768 21.9937 8.47071C22.0793 9.88071 22.0793 14.1193 21.9937 15.5357Z" fill="#C4C4C4"/>
</svg>
