<svg width="163" height="95" viewBox="0 0 163 95" fill="none" xmlns="http://www.w3.org/2000/svg">
<mask id="path-1-outside-1_101_422" maskUnits="userSpaceOnUse" x="-0.671997" y="-0.140137" width="163" height="95" fill="black">
<rect fill="white" x="-0.671997" y="-0.140137" width="163" height="95"/>
<path d="M96.328 1.09186L92.296 18.9478C95.368 20.4839 98.632 23.8439 102.088 29.0279C105.352 34.2119 107.272 39.8759 107.848 46.0199L88.264 49.1879V93.2519H161.128V66.4679C161.128 48.8039 156.04 34.1159 145.864 22.4039C135.496 10.6919 118.984 3.58786 96.328 1.09186ZM9.06399 1.09186L5.03199 18.9478C8.104 20.4839 11.368 23.8439 14.824 29.0279C18.088 34.2119 20.008 39.8759 20.584 46.0199L0.999994 49.1879V93.2519H73.864V66.4679C73.864 48.8039 68.776 34.1159 58.6 22.4039C48.232 10.6919 31.72 3.58786 9.06399 1.09186Z"/>
</mask>
<path d="M96.328 1.09186L95.3526 0.871593L95.5494 2.28882e-05L96.4375 0.0978699L96.328 1.09186ZM92.296 18.9478L91.8488 19.8423L91.148 19.4919L91.3206 18.7276L92.296 18.9478ZM102.088 29.0279L102.92 28.4732L102.927 28.484L102.934 28.495L102.088 29.0279ZM107.848 46.0199L108.844 45.9265L108.931 46.8577L108.008 47.007L107.848 46.0199ZM88.264 49.1879H87.264V48.3366L88.1043 48.2007L88.264 49.1879ZM88.264 93.2519V94.2519H87.264V93.2519H88.264ZM161.128 93.2519H162.128V94.2519H161.128V93.2519ZM145.864 22.4039L146.613 21.741L146.619 21.748L145.864 22.4039ZM9.064 1.09186L8.08855 0.871593L8.28535 2.28882e-05L9.17351 0.0978699L9.064 1.09186ZM5.032 18.9478L4.58478 19.8423L3.88397 19.4919L4.05655 18.7276L5.032 18.9478ZM14.824 29.0279L15.656 28.4732L15.6633 28.484L15.6702 28.495L14.824 29.0279ZM20.584 46.0199L21.5796 45.9265L21.6669 46.8577L20.7437 47.007L20.584 46.0199ZM1 49.1879H0V48.3366L0.840302 48.2007L1 49.1879ZM1 93.2519V94.2519H0V93.2519H1ZM73.864 93.2519H74.864V94.2519H73.864V93.2519ZM58.6 22.4039L59.3488 21.741L59.3549 21.748L58.6 22.4039ZM97.3034 1.31212L93.2714 19.1681L91.3206 18.7276L95.3526 0.871593L97.3034 1.31212ZM92.7432 18.0534C96.0517 19.7077 99.4346 23.245 102.92 28.4732L101.256 29.5826C97.8294 24.4427 94.6843 21.26 91.8488 19.8423L92.7432 18.0534ZM102.934 28.495C106.282 33.8128 108.253 39.6275 108.844 45.9265L106.852 46.1132C106.291 40.1242 104.422 34.6109 101.242 29.5607L102.934 28.495ZM108.008 47.007L88.4237 50.175L88.1043 48.2007L107.688 45.0327L108.008 47.007ZM89.264 49.1879V93.2519H87.264V49.1879H89.264ZM88.264 92.2519H161.128V94.2519H88.264V92.2519ZM160.128 93.2519V66.4679H162.128V93.2519H160.128ZM160.128 66.4679C160.128 49.0093 155.105 34.5646 145.109 23.0597L146.619 21.748C156.975 33.6671 162.128 48.5984 162.128 66.4679H160.128ZM145.115 23.0667C134.973 11.6101 118.739 4.5669 96.2185 2.08584L96.4375 0.0978699C119.229 2.60881 136.019 9.7736 146.613 21.741L145.115 23.0667ZM10.0394 1.31212L6.00743 19.1681L4.05655 18.7276L8.08855 0.871593L10.0394 1.31212ZM5.4792 18.0534C8.78773 19.7077 12.1706 23.245 15.656 28.4732L13.9919 29.5826C10.5654 24.4427 7.42027 21.26 4.58478 19.8423L5.4792 18.0534ZM15.6702 28.495C19.0184 33.8128 20.9891 39.6275 21.5796 45.9265L19.5884 46.1132C19.0269 40.1242 17.1575 34.6109 13.9778 29.5607L15.6702 28.495ZM20.7437 47.007L1.15968 50.175L0.840302 48.2007L20.4243 45.0327L20.7437 47.007ZM2 49.1879V93.2519H0V49.1879H2ZM1 92.2519H73.864V94.2519H1V92.2519ZM72.864 93.2519V66.4679H74.864V93.2519H72.864ZM72.864 66.4679C72.864 49.0093 67.8412 34.5646 57.8451 23.0597L59.3549 21.748C69.7108 33.6671 74.864 48.5984 74.864 66.4679H72.864ZM57.8512 23.0667C47.7093 11.6101 31.4749 4.5669 8.95448 2.08584L9.17351 0.0978699C31.9651 2.60881 48.7546 9.7736 59.3488 21.741L57.8512 23.0667Z" fill="#FF9142" mask="url(#path-1-outside-1_101_422)"/>
</svg>
