<svg width="26" height="24" viewBox="0 0 26 24" fill="none" xmlns="http://www.w3.org/2000/svg">
<path d="M24.705 0H1.02937C0.460002 0 0 0.429 0 0.96V23.04C0 23.571 0.460002 24 1.02937 24H24.705C25.2744 24 25.7344 23.571 25.7344 23.04V0.96C25.7344 0.429 25.2744 0 24.705 0ZM19.7929 8.691C19.8026 8.832 19.8026 8.979 19.8026 9.123C19.8026 13.527 16.2062 18.6 9.63431 18.6C7.60772 18.6 5.72912 18.051 4.14645 17.106C4.43596 17.136 4.71261 17.148 5.00855 17.148C6.68129 17.148 8.21892 16.62 9.44452 15.726C7.87472 15.696 6.55583 14.736 6.10548 13.416C6.65555 13.491 7.15094 13.491 7.7171 13.356C6.9088 13.2029 6.18228 12.7934 5.66097 12.1973C5.13966 11.6012 4.85571 10.8552 4.85736 10.086V10.044C5.33023 10.293 5.88674 10.446 6.46898 10.467C5.97952 10.1628 5.57811 9.75063 5.30035 9.26709C5.02259 8.78355 4.87706 8.24356 4.87666 7.695C4.87666 7.074 5.05037 6.507 5.3624 6.015C6.25957 7.04501 7.37911 7.88743 8.64824 8.4875C9.91738 9.08757 11.3077 9.43186 12.7289 9.498C12.2238 7.233 14.0381 5.4 16.2191 5.4C17.2485 5.4 18.1749 5.802 18.8279 6.45C19.6353 6.309 20.4074 6.027 21.0958 5.649C20.8288 6.42 20.269 7.071 19.526 7.482C20.2465 7.41 20.9413 7.224 21.5847 6.963C21.099 7.629 20.491 8.22 19.7929 8.691Z" fill="#C4C4C4"/>
</svg>
